<?xml version="1.0" encoding="UTF-8" standalone="no"?>
<!-- Created with Inkscape (http://www.inkscape.org/) -->

<svg
   xmlns:dc="http://purl.org/dc/elements/1.1/"
   xmlns:cc="http://creativecommons.org/ns#"
   xmlns:rdf="http://www.w3.org/1999/02/22-rdf-syntax-ns#"
   xmlns:svg="http://www.w3.org/2000/svg"
   xmlns="http://www.w3.org/2000/svg"
   xmlns:sodipodi="http://sodipodi.sourceforge.net/DTD/sodipodi-0.dtd"
   xmlns:inkscape="http://www.inkscape.org/namespaces/inkscape"
   width="297mm"
   height="210mm"
   id="svg3809"
   version="1.1"
   inkscape:version="0.48.4 r9939"
   sodipodi:docname="New document 6">
  <defs
     id="defs3811" />
  <sodipodi:namedview
     inkscape:document-units="mm"
     pagecolor="#ffffff"
     bordercolor="#666666"
     borderopacity="1.0"
     inkscape:pageopacity="0.0"
     inkscape:pageshadow="2"
     inkscape:zoom="0.61399264"
     inkscape:cx="549.65341"
     inkscape:cy="236.75649"
     inkscape:current-layer="layer1"
     id="namedview3813"
     showgrid="false"
     inkscape:window-width="1680"
     inkscape:window-height="997"
     inkscape:window-x="1358"
     inkscape:window-y="-8"
     inkscape:window-maximized="1" />
  <metadata
     id="metadata3815">
    <rdf:RDF>
      <cc:Work
         rdf:about="">
        <dc:format>image/svg+xml</dc:format>
        <dc:type
           rdf:resource="http://purl.org/dc/dcmitype/StillImage" />
        <dc:title></dc:title>
      </cc:Work>
    </rdf:RDF>
  </metadata>
  <g
     inkscape:label="Layer 1"
     inkscape:groupmode="layer"
     id="layer1">
    <rect
       style="fill:#ffffff;stroke:none;stroke-width:0.99921262000000000;stroke-miterlimit:4;stroke-opacity:1;stroke-dasharray:none;fill-opacity:1"
       id="rect4395"
       width="1052.6113"
       height="746.27148"
       x="0"
       y="0.12631376"
       rx="1.5009768e-014" />
    <path
       style="fill:#c41a1a;stroke:none;stroke-width:1px;stroke-linecap:butt;stroke-linejoin:miter;stroke-opacity:1;fill-opacity:1"
       d="m 199.71738,131.91288 60.87206,0 c 0,0 3.67584,0.55501 5.39502,1.22151 1.85607,0.71957 3.63163,1.71513 5.19143,2.95199 1.9566,1.55151 3.72593,3.40497 5.08964,5.49681 1.35284,2.07516 2.19061,4.46283 2.95199,6.82011 0.97168,3.00838 2.03585,9.26314 2.03585,9.26314 l 0,421.45367 c 0,0 -0.90741,4.9955 -1.83344,7.34179 -0.90686,2.29772 -2.21923,4.42905 -3.59891,6.47805 -1.23896,1.84002 -2.5089,3.71764 -4.17475,5.18244 -1.31023,1.1521 -2.80248,2.19863 -4.46265,2.73518 -2.42687,0.78433 -7.62971,0.57582 -7.62971,0.57582 l -60.1739,0 0,61.03764 417.33045,0 c 0,0 26.96809,-3.3522 40.16391,-6.47805 11.65176,-2.76009 23.11186,-6.43068 34.2617,-10.79675 8.89441,-3.48288 17.77667,-7.2309 25.9122,-12.23632 7.97912,-4.90919 15.37174,-10.82816 22.16933,-17.2748 8.3916,-7.95835 15.89878,-16.8791 22.74516,-26.20012 4.17044,-5.67785 7.75035,-11.78871 11.08466,-17.99459 2.05258,-3.8203 3.55556,-7.91327 5.47036,-11.80445 3.34517,-6.79791 7.33049,-13.27643 10.50883,-20.15393 4.01849,-8.69546 7.53773,-17.62433 10.79676,-26.63199 4.50737,-12.45794 8.97376,-24.98462 12.09236,-37.86061 3.89411,-16.07791 6.50593,-32.49004 8.20553,-48.94527 2.48176,-24.02799 3.55835,-48.26396 2.87913,-72.41022 -0.61947,-22.0221 -3.23942,-43.97584 -6.33409,-65.78821 -2.29767,-16.19477 -4.91388,-32.40516 -9.06927,-48.22549 -2.53661,-9.65734 -5.97062,-19.07524 -9.6451,-28.35946 -3.97516,-10.04394 -8.30062,-19.98214 -13.38797,-29.51113 -6.43448,-12.05224 -13.59348,-23.76236 -21.59351,-34.8375 -7.14124,-9.88624 -14.62049,-19.67449 -23.46494,-28.07156 -8.05264,-7.64531 -17.08001,-14.34822 -26.63198,-20.009984 -7.79595,-4.620911 -16.27511,-8.046364 -24.76056,-11.228622 -11.39998,-4.27528 -23.13241,-7.709293 -34.98147,-10.508838 -11.9924,-2.833412 -36.42104,-6.334094 -36.42104,-6.334094 l -417.18649,0 z"
       id="path4367"
       inkscape:connector-curvature="0"
       sodipodi:nodetypes="ccssssccssssccccsssssssssssssssssssssccc" />
    <path
       style="fill:#ffffff;stroke:none;stroke-width:1px;stroke-linecap:butt;stroke-linejoin:miter;stroke-opacity:1;fill-opacity:1"
       d="m 589.7872,569.01094 c 8.61631,-6.67259 16.74128,-14.10809 23.8195,-22.3944 6.34487,-7.4278 11.72305,-15.70015 16.49043,-24.22668 7.11536,-12.72592 13.00191,-26.17564 17.91552,-39.90276 5.14297,-14.36789 9.20297,-29.17811 12.01155,-44.17805 4.18187,-22.33433 6.64897,-45.0765 7.12549,-67.79397 0.24955,-11.89664 0.004,-28.41504 -1.3757,-40.23408 -1.16523,-9.98426 -3.32958,-22.41796 -5.08964,-32.3147 -2.48904,-13.99579 -4.72323,-21.06423 -8.59999,-34.74078 -3.27532,-11.55477 -7.93279,-22.71667 -13.02947,-33.59161 -4.80831,-10.25964 -10.01151,-20.42813 -16.49042,-29.72349 -5.53052,-7.93469 -11.83391,-15.41894 -18.93346,-21.98723 -5.80852,-5.37386 -12.36016,-9.96188 -19.13703,-14.04739 -9.553,-5.75913 -19.5191,-11.09722 -30.10596,-14.61087 -12.07391,-4.00719 -37.48443,-7.17278 -37.48443,-7.17278 l -90.59555,0 0,449.10961 104.84654,0 c 0,0 13.96935,-1.71363 20.76572,-3.46095 6.33994,-1.62997 12.63393,-3.66311 18.52628,-6.51474 6.86351,-3.32163 13.31197,-7.54647 19.34062,-12.21513 z"
       id="path4369"
       inkscape:connector-curvature="0"
       sodipodi:nodetypes="ssssssssssssssccccsss" />
  </g>
</svg>
